<mxfile host="app.diagrams.net" agent="Mozilla/5.0 (Windows NT 10.0; Win64; x64) AppleWebKit/537.36 (KHTML, like Gecko) Chrome/131.0.0.0 Safari/537.36 OPR/116.0.0.0" version="24.9.2">
  <diagram name="Page-1" id="edf60f1a-56cd-e834-aa8a-f176f3a09ee4">
    <mxGraphModel dx="806" dy="468" grid="1" gridSize="10" guides="1" tooltips="1" connect="1" arrows="1" fold="1" page="1" pageScale="1" pageWidth="1100" pageHeight="850" background="none" math="0" shadow="0">
      <root>
        <mxCell id="0" />
        <mxCell id="1" parent="0" />
        <mxCell id="4YpqXkgW8Ewd-vz6s3Ge-1" value="&lt;font&gt;Start&lt;/font&gt;" style="ellipse;whiteSpace=wrap;html=1;fontSize=10;" vertex="1" parent="1">
          <mxGeometry x="635" y="60" width="90" height="60" as="geometry" />
        </mxCell>
        <mxCell id="4YpqXkgW8Ewd-vz6s3Ge-2" value="Signaling server" style="text;html=1;align=center;verticalAlign=middle;whiteSpace=wrap;rounded=0;fontSize=10;" vertex="1" parent="1">
          <mxGeometry x="640" y="10" width="80" height="40" as="geometry" />
        </mxCell>
        <mxCell id="4YpqXkgW8Ewd-vz6s3Ge-10" value="" style="edgeStyle=orthogonalEdgeStyle;rounded=0;orthogonalLoop=1;jettySize=auto;html=1;fontSize=10;" edge="1" parent="1" source="4YpqXkgW8Ewd-vz6s3Ge-3" target="4YpqXkgW8Ewd-vz6s3Ge-8">
          <mxGeometry relative="1" as="geometry" />
        </mxCell>
        <mxCell id="4YpqXkgW8Ewd-vz6s3Ge-3" value="&lt;font&gt;Start&lt;/font&gt;" style="ellipse;whiteSpace=wrap;html=1;fontSize=10;" vertex="1" parent="1">
          <mxGeometry x="1015" y="60" width="90" height="60" as="geometry" />
        </mxCell>
        <mxCell id="4YpqXkgW8Ewd-vz6s3Ge-4" value="Client 2&lt;div&gt;(Lobby host)&lt;/div&gt;" style="text;html=1;align=center;verticalAlign=middle;whiteSpace=wrap;rounded=0;fontSize=10;" vertex="1" parent="1">
          <mxGeometry x="1020" y="10" width="80" height="40" as="geometry" />
        </mxCell>
        <mxCell id="4YpqXkgW8Ewd-vz6s3Ge-9" value="" style="edgeStyle=orthogonalEdgeStyle;rounded=0;orthogonalLoop=1;jettySize=auto;html=1;fontSize=10;" edge="1" parent="1" source="4YpqXkgW8Ewd-vz6s3Ge-5" target="4YpqXkgW8Ewd-vz6s3Ge-7">
          <mxGeometry relative="1" as="geometry" />
        </mxCell>
        <mxCell id="4YpqXkgW8Ewd-vz6s3Ge-5" value="&lt;font&gt;Start&lt;/font&gt;" style="ellipse;whiteSpace=wrap;html=1;fontSize=10;" vertex="1" parent="1">
          <mxGeometry x="255" y="60" width="90" height="60" as="geometry" />
        </mxCell>
        <mxCell id="4YpqXkgW8Ewd-vz6s3Ge-6" value="Client 1&lt;div&gt;(Player)&lt;/div&gt;" style="text;html=1;align=center;verticalAlign=middle;whiteSpace=wrap;rounded=0;fontSize=10;" vertex="1" parent="1">
          <mxGeometry x="260" y="10" width="80" height="40" as="geometry" />
        </mxCell>
        <mxCell id="4YpqXkgW8Ewd-vz6s3Ge-15" value="" style="edgeStyle=orthogonalEdgeStyle;rounded=0;orthogonalLoop=1;jettySize=auto;html=1;fontSize=10;" edge="1" parent="1" source="4YpqXkgW8Ewd-vz6s3Ge-7" target="4YpqXkgW8Ewd-vz6s3Ge-13">
          <mxGeometry relative="1" as="geometry" />
        </mxCell>
        <mxCell id="4YpqXkgW8Ewd-vz6s3Ge-7" value="Create webrtc data channel" style="rounded=0;whiteSpace=wrap;html=1;fontSize=10;" vertex="1" parent="1">
          <mxGeometry x="260" y="160" width="80" height="40" as="geometry" />
        </mxCell>
        <mxCell id="4YpqXkgW8Ewd-vz6s3Ge-16" value="" style="edgeStyle=orthogonalEdgeStyle;rounded=0;orthogonalLoop=1;jettySize=auto;html=1;fontSize=10;" edge="1" parent="1" source="4YpqXkgW8Ewd-vz6s3Ge-8" target="4YpqXkgW8Ewd-vz6s3Ge-14">
          <mxGeometry relative="1" as="geometry" />
        </mxCell>
        <mxCell id="4YpqXkgW8Ewd-vz6s3Ge-8" value="Create webrtc data channel" style="rounded=0;whiteSpace=wrap;html=1;fontSize=10;" vertex="1" parent="1">
          <mxGeometry x="1020" y="160" width="80" height="40" as="geometry" />
        </mxCell>
        <mxCell id="4YpqXkgW8Ewd-vz6s3Ge-43" value="" style="edgeStyle=orthogonalEdgeStyle;rounded=0;orthogonalLoop=1;jettySize=auto;html=1;" edge="1" parent="1" source="4YpqXkgW8Ewd-vz6s3Ge-13" target="4YpqXkgW8Ewd-vz6s3Ge-42">
          <mxGeometry relative="1" as="geometry" />
        </mxCell>
        <mxCell id="4YpqXkgW8Ewd-vz6s3Ge-13" value="Connect webrct related signals" style="rounded=0;whiteSpace=wrap;html=1;fontSize=10;" vertex="1" parent="1">
          <mxGeometry x="260" y="240" width="80" height="40" as="geometry" />
        </mxCell>
        <mxCell id="4YpqXkgW8Ewd-vz6s3Ge-69" value="" style="edgeStyle=orthogonalEdgeStyle;rounded=0;orthogonalLoop=1;jettySize=auto;html=1;" edge="1" parent="1" source="4YpqXkgW8Ewd-vz6s3Ge-14" target="4YpqXkgW8Ewd-vz6s3Ge-56">
          <mxGeometry relative="1" as="geometry" />
        </mxCell>
        <mxCell id="4YpqXkgW8Ewd-vz6s3Ge-14" value="Connect webrct related signals" style="rounded=0;whiteSpace=wrap;html=1;fontSize=10;" vertex="1" parent="1">
          <mxGeometry x="1020" y="240" width="80" height="40" as="geometry" />
        </mxCell>
        <mxCell id="4YpqXkgW8Ewd-vz6s3Ge-66" value="" style="edgeStyle=orthogonalEdgeStyle;rounded=0;orthogonalLoop=1;jettySize=auto;html=1;" edge="1" parent="1" source="4YpqXkgW8Ewd-vz6s3Ge-38" target="4YpqXkgW8Ewd-vz6s3Ge-53">
          <mxGeometry relative="1" as="geometry" />
        </mxCell>
        <mxCell id="4YpqXkgW8Ewd-vz6s3Ge-95" value="" style="edgeStyle=orthogonalEdgeStyle;rounded=0;orthogonalLoop=1;jettySize=auto;html=1;" edge="1" parent="1" source="4YpqXkgW8Ewd-vz6s3Ge-38" target="4YpqXkgW8Ewd-vz6s3Ge-91">
          <mxGeometry relative="1" as="geometry" />
        </mxCell>
        <mxCell id="4YpqXkgW8Ewd-vz6s3Ge-38" value="&amp;nbsp;session_description_created" style="shape=step;perimeter=stepPerimeter;whiteSpace=wrap;html=1;fixedSize=1;" vertex="1" parent="1">
          <mxGeometry x="190" y="390" width="220" height="40" as="geometry" />
        </mxCell>
        <mxCell id="4YpqXkgW8Ewd-vz6s3Ge-44" value="" style="edgeStyle=orthogonalEdgeStyle;rounded=0;orthogonalLoop=1;jettySize=auto;html=1;" edge="1" parent="1" source="4YpqXkgW8Ewd-vz6s3Ge-42" target="4YpqXkgW8Ewd-vz6s3Ge-38">
          <mxGeometry relative="1" as="geometry" />
        </mxCell>
        <mxCell id="4YpqXkgW8Ewd-vz6s3Ge-42" value="&lt;font&gt;create_offer()&lt;/font&gt;" style="shape=process;whiteSpace=wrap;html=1;backgroundOutline=1;" vertex="1" parent="1">
          <mxGeometry x="235" y="320" width="130" height="30" as="geometry" />
        </mxCell>
        <mxCell id="4YpqXkgW8Ewd-vz6s3Ge-82" value="" style="edgeStyle=orthogonalEdgeStyle;rounded=0;orthogonalLoop=1;jettySize=auto;html=1;" edge="1" parent="1" source="4YpqXkgW8Ewd-vz6s3Ge-47" target="4YpqXkgW8Ewd-vz6s3Ge-81">
          <mxGeometry relative="1" as="geometry" />
        </mxCell>
        <mxCell id="4YpqXkgW8Ewd-vz6s3Ge-47" value="set_remote_description" style="shape=process;whiteSpace=wrap;html=1;backgroundOutline=1;" vertex="1" parent="1">
          <mxGeometry x="970" y="480" width="180" height="30" as="geometry" />
        </mxCell>
        <mxCell id="4YpqXkgW8Ewd-vz6s3Ge-49" value="set_local_description" style="shape=process;whiteSpace=wrap;html=1;backgroundOutline=1;" vertex="1" parent="1">
          <mxGeometry x="970" y="600" width="180" height="30" as="geometry" />
        </mxCell>
        <mxCell id="4YpqXkgW8Ewd-vz6s3Ge-52" value="Forward traffic between clients" style="rounded=0;whiteSpace=wrap;html=1;" vertex="1" parent="1">
          <mxGeometry x="620" y="170" width="120" height="850" as="geometry" />
        </mxCell>
        <mxCell id="4YpqXkgW8Ewd-vz6s3Ge-53" value="send&lt;div&gt;&lt;span style=&quot;background-color: initial;&quot;&gt;generated&amp;nbsp;&lt;/span&gt;&lt;span style=&quot;background-color: initial;&quot;&gt;args&lt;/span&gt;&lt;/div&gt;" style="ellipse;shape=cloud;whiteSpace=wrap;html=1;" vertex="1" parent="1">
          <mxGeometry x="440" y="380" width="140" height="60" as="geometry" />
        </mxCell>
        <mxCell id="4YpqXkgW8Ewd-vz6s3Ge-61" value="" style="edgeStyle=orthogonalEdgeStyle;rounded=0;orthogonalLoop=1;jettySize=auto;html=1;" edge="1" parent="1" source="4YpqXkgW8Ewd-vz6s3Ge-56" target="4YpqXkgW8Ewd-vz6s3Ge-47">
          <mxGeometry relative="1" as="geometry" />
        </mxCell>
        <mxCell id="4YpqXkgW8Ewd-vz6s3Ge-56" value="receive&amp;nbsp;&lt;span style=&quot;background-color: initial;&quot;&gt;remote&lt;/span&gt;&lt;div&gt;&lt;div&gt;description args&lt;/div&gt;&lt;/div&gt;" style="ellipse;shape=cloud;whiteSpace=wrap;html=1;" vertex="1" parent="1">
          <mxGeometry x="985" y="370" width="150" height="80" as="geometry" />
        </mxCell>
        <mxCell id="4YpqXkgW8Ewd-vz6s3Ge-73" value="" style="edgeStyle=orthogonalEdgeStyle;rounded=0;orthogonalLoop=1;jettySize=auto;html=1;" edge="1" parent="1" source="4YpqXkgW8Ewd-vz6s3Ge-64" target="4YpqXkgW8Ewd-vz6s3Ge-72">
          <mxGeometry relative="1" as="geometry" />
        </mxCell>
        <mxCell id="4YpqXkgW8Ewd-vz6s3Ge-64" value="ice_candidate_created" style="shape=step;perimeter=stepPerimeter;whiteSpace=wrap;html=1;fixedSize=1;" vertex="1" parent="1">
          <mxGeometry x="205" y="890" width="190" height="30" as="geometry" />
        </mxCell>
        <mxCell id="4YpqXkgW8Ewd-vz6s3Ge-67" style="edgeStyle=orthogonalEdgeStyle;rounded=0;orthogonalLoop=1;jettySize=auto;html=1;" edge="1" parent="1" source="4YpqXkgW8Ewd-vz6s3Ge-53">
          <mxGeometry relative="1" as="geometry">
            <mxPoint x="614" y="410" as="targetPoint" />
          </mxGeometry>
        </mxCell>
        <mxCell id="4YpqXkgW8Ewd-vz6s3Ge-68" style="edgeStyle=orthogonalEdgeStyle;rounded=0;orthogonalLoop=1;jettySize=auto;html=1;" edge="1" parent="1">
          <mxGeometry relative="1" as="geometry">
            <mxPoint x="740" y="410.2400000000001" as="sourcePoint" />
            <mxPoint x="990" y="410" as="targetPoint" />
          </mxGeometry>
        </mxCell>
        <mxCell id="4YpqXkgW8Ewd-vz6s3Ge-84" value="&amp;nbsp;Offer&amp;nbsp;" style="edgeLabel;html=1;align=center;verticalAlign=middle;resizable=0;points=[];" vertex="1" connectable="0" parent="4YpqXkgW8Ewd-vz6s3Ge-68">
          <mxGeometry x="0.0128" y="-1" relative="1" as="geometry">
            <mxPoint as="offset" />
          </mxGeometry>
        </mxCell>
        <mxCell id="4YpqXkgW8Ewd-vz6s3Ge-70" value="&lt;font&gt;add_ice_candidate&lt;/font&gt;" style="shape=process;whiteSpace=wrap;html=1;backgroundOutline=1;" vertex="1" parent="1">
          <mxGeometry x="970" y="980" width="180" height="40" as="geometry" />
        </mxCell>
        <mxCell id="4YpqXkgW8Ewd-vz6s3Ge-72" value="send&lt;div&gt;generated args&lt;/div&gt;" style="ellipse;shape=cloud;whiteSpace=wrap;html=1;" vertex="1" parent="1">
          <mxGeometry x="440" y="875" width="140" height="60" as="geometry" />
        </mxCell>
        <mxCell id="4YpqXkgW8Ewd-vz6s3Ge-75" style="edgeStyle=orthogonalEdgeStyle;rounded=0;orthogonalLoop=1;jettySize=auto;html=1;" edge="1" parent="1" source="4YpqXkgW8Ewd-vz6s3Ge-72">
          <mxGeometry relative="1" as="geometry">
            <mxPoint x="610" y="905" as="targetPoint" />
          </mxGeometry>
        </mxCell>
        <mxCell id="4YpqXkgW8Ewd-vz6s3Ge-78" value="" style="edgeStyle=orthogonalEdgeStyle;rounded=0;orthogonalLoop=1;jettySize=auto;html=1;" edge="1" parent="1" source="4YpqXkgW8Ewd-vz6s3Ge-77" target="4YpqXkgW8Ewd-vz6s3Ge-70">
          <mxGeometry relative="1" as="geometry" />
        </mxCell>
        <mxCell id="4YpqXkgW8Ewd-vz6s3Ge-77" value="receive&amp;nbsp;&lt;span style=&quot;background-color: initial;&quot;&gt;ice&lt;/span&gt;&lt;div&gt;&lt;div&gt;candidate args&lt;/div&gt;&lt;/div&gt;" style="ellipse;shape=cloud;whiteSpace=wrap;html=1;" vertex="1" parent="1">
          <mxGeometry x="985" y="865" width="150" height="80" as="geometry" />
        </mxCell>
        <mxCell id="4YpqXkgW8Ewd-vz6s3Ge-80" style="edgeStyle=orthogonalEdgeStyle;rounded=0;orthogonalLoop=1;jettySize=auto;html=1;" edge="1" parent="1">
          <mxGeometry relative="1" as="geometry">
            <mxPoint x="740" y="904.8800000000001" as="sourcePoint" />
            <mxPoint x="990" y="904.64" as="targetPoint" />
          </mxGeometry>
        </mxCell>
        <mxCell id="4YpqXkgW8Ewd-vz6s3Ge-94" value="" style="edgeStyle=orthogonalEdgeStyle;rounded=0;orthogonalLoop=1;jettySize=auto;html=1;" edge="1" parent="1" source="4YpqXkgW8Ewd-vz6s3Ge-81" target="4YpqXkgW8Ewd-vz6s3Ge-49">
          <mxGeometry relative="1" as="geometry" />
        </mxCell>
        <mxCell id="4YpqXkgW8Ewd-vz6s3Ge-98" value="" style="edgeStyle=orthogonalEdgeStyle;rounded=0;orthogonalLoop=1;jettySize=auto;html=1;" edge="1" parent="1" source="4YpqXkgW8Ewd-vz6s3Ge-81" target="4YpqXkgW8Ewd-vz6s3Ge-92">
          <mxGeometry relative="1" as="geometry" />
        </mxCell>
        <mxCell id="4YpqXkgW8Ewd-vz6s3Ge-81" value="session_description_created" style="shape=step;perimeter=stepPerimeter;whiteSpace=wrap;html=1;fixedSize=1;" vertex="1" parent="1">
          <mxGeometry x="957.5" y="540" width="205" height="30" as="geometry" />
        </mxCell>
        <mxCell id="4YpqXkgW8Ewd-vz6s3Ge-87" style="edgeStyle=orthogonalEdgeStyle;rounded=0;orthogonalLoop=1;jettySize=auto;html=1;entryX=1;entryY=0.5;entryDx=0;entryDy=0;exitX=-0.003;exitY=0.27;exitDx=0;exitDy=0;exitPerimeter=0;" edge="1" parent="1" source="4YpqXkgW8Ewd-vz6s3Ge-85" target="4YpqXkgW8Ewd-vz6s3Ge-47">
          <mxGeometry relative="1" as="geometry" />
        </mxCell>
        <mxCell id="4YpqXkgW8Ewd-vz6s3Ge-85" value="&lt;div&gt;&lt;font&gt;From the docs&lt;/font&gt;&lt;/div&gt;&lt;div&gt;&lt;font style=&quot;font-size: 9px;&quot;&gt;If type is &quot;offer&quot; the peer will emit session_description_created with the appropriate answer.&amp;nbsp;&lt;/font&gt;&lt;span style=&quot;font-size: 9px; background-color: initial;&quot;&gt;If type is &quot;answer&quot; the peer will start emitting ice_candidate_created.&lt;/span&gt;&lt;/div&gt;&lt;div&gt;&lt;span style=&quot;font-size: 9px; background-color: initial;&quot;&gt;&lt;br&gt;&lt;/span&gt;&lt;/div&gt;&lt;div&gt;&lt;font&gt;This client is receiving an offer, which means&lt;/font&gt;&lt;/div&gt;&lt;div&gt;&lt;font&gt;&lt;span style=&quot;background-color: initial;&quot;&gt;session_description_created&lt;/span&gt;&lt;span style=&quot;background-color: initial;&quot;&gt;&amp;nbsp;is emitted&lt;/span&gt;&lt;/font&gt;&lt;/div&gt;" style="text;html=1;align=center;verticalAlign=middle;whiteSpace=wrap;rounded=0;" vertex="1" parent="1">
          <mxGeometry x="1250" y="451" width="190" height="160" as="geometry" />
        </mxCell>
        <mxCell id="4YpqXkgW8Ewd-vz6s3Ge-100" style="edgeStyle=orthogonalEdgeStyle;rounded=0;orthogonalLoop=1;jettySize=auto;html=1;entryX=0;entryY=0.5;entryDx=0;entryDy=0;exitX=0.5;exitY=1;exitDx=0;exitDy=0;" edge="1" parent="1" source="4YpqXkgW8Ewd-vz6s3Ge-91" target="4YpqXkgW8Ewd-vz6s3Ge-64">
          <mxGeometry relative="1" as="geometry">
            <Array as="points">
              <mxPoint x="100" y="905" />
            </Array>
          </mxGeometry>
        </mxCell>
        <mxCell id="4YpqXkgW8Ewd-vz6s3Ge-91" value="set_local_description" style="shape=process;whiteSpace=wrap;html=1;backgroundOutline=1;" vertex="1" parent="1">
          <mxGeometry x="10" y="540" width="180" height="30" as="geometry" />
        </mxCell>
        <mxCell id="4YpqXkgW8Ewd-vz6s3Ge-99" value="" style="edgeStyle=orthogonalEdgeStyle;rounded=0;orthogonalLoop=1;jettySize=auto;html=1;" edge="1" parent="1" source="4YpqXkgW8Ewd-vz6s3Ge-92">
          <mxGeometry relative="1" as="geometry">
            <mxPoint x="750" y="555" as="targetPoint" />
          </mxGeometry>
        </mxCell>
        <mxCell id="4YpqXkgW8Ewd-vz6s3Ge-92" value="send&lt;div&gt;&lt;span style=&quot;background-color: initial;&quot;&gt;generated&amp;nbsp;&lt;/span&gt;&lt;span style=&quot;background-color: initial;&quot;&gt;args&lt;/span&gt;&lt;/div&gt;" style="ellipse;shape=cloud;whiteSpace=wrap;html=1;" vertex="1" parent="1">
          <mxGeometry x="780" y="525" width="140" height="60" as="geometry" />
        </mxCell>
        <mxCell id="4YpqXkgW8Ewd-vz6s3Ge-101" style="edgeStyle=orthogonalEdgeStyle;rounded=0;orthogonalLoop=1;jettySize=auto;html=1;" edge="1" parent="1">
          <mxGeometry relative="1" as="geometry">
            <mxPoint x="620" y="554.8100000000002" as="sourcePoint" />
            <mxPoint x="370" y="554.57" as="targetPoint" />
          </mxGeometry>
        </mxCell>
        <mxCell id="4YpqXkgW8Ewd-vz6s3Ge-102" value="&amp;nbsp;Answer&amp;nbsp;" style="edgeLabel;html=1;align=center;verticalAlign=middle;resizable=0;points=[];" vertex="1" connectable="0" parent="4YpqXkgW8Ewd-vz6s3Ge-101">
          <mxGeometry x="0.0128" y="-1" relative="1" as="geometry">
            <mxPoint as="offset" />
          </mxGeometry>
        </mxCell>
        <mxCell id="4YpqXkgW8Ewd-vz6s3Ge-113" value="" style="edgeStyle=orthogonalEdgeStyle;rounded=0;orthogonalLoop=1;jettySize=auto;html=1;" edge="1" parent="1" source="4YpqXkgW8Ewd-vz6s3Ge-105" target="4YpqXkgW8Ewd-vz6s3Ge-112">
          <mxGeometry relative="1" as="geometry" />
        </mxCell>
        <mxCell id="4YpqXkgW8Ewd-vz6s3Ge-105" value="receive&amp;nbsp;&lt;span style=&quot;background-color: initial;&quot;&gt;remote&lt;/span&gt;&lt;div&gt;&lt;div&gt;description args&lt;/div&gt;&lt;/div&gt;" style="ellipse;shape=cloud;whiteSpace=wrap;html=1;" vertex="1" parent="1">
          <mxGeometry x="225" y="515" width="150" height="80" as="geometry" />
        </mxCell>
        <mxCell id="4YpqXkgW8Ewd-vz6s3Ge-107" value="ice_candidate_created" style="shape=process;whiteSpace=wrap;html=1;backgroundOutline=1;" vertex="1" parent="1">
          <mxGeometry x="210" y="700" width="180" height="30" as="geometry" />
        </mxCell>
        <mxCell id="4YpqXkgW8Ewd-vz6s3Ge-114" value="" style="edgeStyle=orthogonalEdgeStyle;rounded=0;orthogonalLoop=1;jettySize=auto;html=1;" edge="1" parent="1" source="4YpqXkgW8Ewd-vz6s3Ge-109" target="4YpqXkgW8Ewd-vz6s3Ge-112">
          <mxGeometry relative="1" as="geometry" />
        </mxCell>
        <mxCell id="4YpqXkgW8Ewd-vz6s3Ge-109" value="&lt;div&gt;This client is receiving an answer, which means&lt;/div&gt;&lt;div&gt;&lt;span style=&quot;background-color: initial;&quot;&gt;ice_candidate_created&amp;nbsp;&lt;/span&gt;&lt;span style=&quot;background-color: initial;&quot;&gt;is emitted&lt;/span&gt;&lt;/div&gt;" style="text;html=1;align=center;verticalAlign=middle;whiteSpace=wrap;rounded=0;" vertex="1" parent="1">
          <mxGeometry x="430" y="605" width="170" height="80" as="geometry" />
        </mxCell>
        <mxCell id="4YpqXkgW8Ewd-vz6s3Ge-111" value="" style="edgeStyle=orthogonalEdgeStyle;rounded=0;orthogonalLoop=1;jettySize=auto;html=1;" edge="1" parent="1" source="4YpqXkgW8Ewd-vz6s3Ge-110" target="4YpqXkgW8Ewd-vz6s3Ge-42">
          <mxGeometry relative="1" as="geometry" />
        </mxCell>
        <mxCell id="4YpqXkgW8Ewd-vz6s3Ge-110" value="&lt;font&gt;aka init connection sequence&lt;/font&gt;" style="text;html=1;align=center;verticalAlign=middle;whiteSpace=wrap;rounded=0;" vertex="1" parent="1">
          <mxGeometry x="130" y="310" width="60" height="50" as="geometry" />
        </mxCell>
        <mxCell id="4YpqXkgW8Ewd-vz6s3Ge-115" value="" style="edgeStyle=orthogonalEdgeStyle;rounded=0;orthogonalLoop=1;jettySize=auto;html=1;" edge="1" parent="1" source="4YpqXkgW8Ewd-vz6s3Ge-112" target="4YpqXkgW8Ewd-vz6s3Ge-107">
          <mxGeometry relative="1" as="geometry" />
        </mxCell>
        <mxCell id="4YpqXkgW8Ewd-vz6s3Ge-112" value="set_remote_description" style="shape=process;whiteSpace=wrap;html=1;backgroundOutline=1;" vertex="1" parent="1">
          <mxGeometry x="210" y="630" width="180" height="30" as="geometry" />
        </mxCell>
      </root>
    </mxGraphModel>
  </diagram>
</mxfile>
